<?xml version="1.0" standalone="no"?>
<svg xmlns="http://www.w3.org/2000/svg" version="1.1" xmlns:xlink="http://www.w3.org/1999/xlink" width="512" height="512" x="0" y="0" viewBox="0 0 100 100" style="enable-background:new 0 0 512 512" xml:space="preserve" class=""><g><path fill="#fc5d66" d="M10.777 60.098c5.262 5.262 12.279 8.161 19.733 8.161s14.447-2.899 19.734-8.16l9.866-9.868c2.51-2.509 5.847-3.897 9.38-3.897s6.87 1.388 9.38 3.897l6.163 6.14a7.308 7.308 0 0 0 10.33 0 7.308 7.308 0 0 0 0-10.33l-6.14-6.14c-5.262-5.261-12.279-8.16-19.733-8.16S55.043 34.64 49.756 39.9L39.89 49.77a13.199 13.199 0 0 1-9.38 3.897c-3.532 0-6.87-1.388-9.38-3.897l-6.163-6.14c-1.413-1.413-3.289-2.144-5.164-2.144s-3.752.707-5.165 2.144a7.308 7.308 0 0 0 0 10.33l6.139 6.14z" opacity="1" data-original="#c86f5c" class=""/></g></svg>